# xmcd CD database file
#
# Track frame offsets:
#	150
#	17483
#	36888
#	58138
#	79578
#	94753
#	112055
#	130080
#	147690
#	166878
#
# Disc length: 2475 seconds
#
# Revision: 1
# Processed by: cddbd v1.5.1PL2 Copyright (c) Steve Scherf et al.
# Submitted via: CDex 1.51
#
DISCID=8409a90a
DTITLE=Blindside Blues Band - BlindSide Blues Band
DYEAR=1993
DGENRE=Blues
TTITLE0=Bad Premontion
TTITLE1=Renegade
TTITLE2=Hit The Highway
TTITLE3=Blues In My Soul
TTITLE4=Flying
TTITLE5=Back Against The Wall
TTITLE6=Powerful Thing
TTITLE7=Burnings Cities
TTITLE8=Early Grave
TTITLE9=Winner Takes It All
EXTD=Roadrunner Records,1993 YEAR: 1993
EXTT0=
EXTT1=
EXTT2=
EXTT3=
EXTT4=
EXTT5=
EXTT6=
EXTT7=
EXTT8=
EXTT9=
PLAYORDER=
